<?xml version="1.0" standalone="no"?><!DOCTYPE svg PUBLIC "-//W3C//DTD SVG 1.1//EN" "http://www.w3.org/Graphics/SVG/1.1/DTD/svg11.dtd"><svg t="1507642171742" class="icon" style="" viewBox="0 0 1024 1024" version="1.1" xmlns="http://www.w3.org/2000/svg" p-id="5788" xmlns:xlink="http://www.w3.org/1999/xlink" width="32" height="32"><defs><style type="text/css"></style></defs><path d="M787.632 374.304a261.12 261.12 0 0 0-87.68-76.928c-62.224-33.824-125.904-37.472-150.384-37.472-7.296 0-11.408 0.304-12.048 0.368-86.96 11.472-140.208 52.576-169.584 85.008-32 35.36-43.248 68-43.968 70.24-32.784 132.336 52.048 177.92 108.192 208.096 19.648 10.528 38.208 20.464 45.744 31.056 32.576 45.616 18.384 98.176 6.992 140.4-3.776 14.016-7.328 27.248-8.928 39.056-5.36 40.304 2.352 73.6 22.96 98.976 37.296 46.144 103.408 49.712 122.784 49.712 11.664 0 22.624-1.04 31.728-3.04 47.6-10.48 87.6-35.44 118.88-74.176 26.592-32.832 46.864-75.632 60.256-127.184 24.08-92.896 21.136-196.864 10.352-263.2-9.024-55.152-27.616-102.576-55.296-140.912zM404.096 184.688c0-79.184-64.432-143.6-143.648-143.6-79.184 0-143.616 64.416-143.616 143.6 0 79.216 64.432 143.664 143.616 143.664 79.216 0 143.648-64.448 143.648-143.664zM506.528 190.56c39.904 0 72.352-32.448 72.352-72.336s-32.448-72.336-72.352-72.336c-39.888 0-72.336 32.448-72.336 72.336s32.448 72.336 72.336 72.336zM699.376 207.152a72.416 72.416 0 0 0 72.336-72.336c0-39.888-32.448-72.336-72.336-72.336S627.04 94.928 627.04 134.816a72.4 72.4 0 0 0 72.336 72.336zM855.68 148.944a72.432 72.432 0 0 0-72.336 72.336 72.416 72.416 0 0 0 72.336 72.336 72.416 72.416 0 0 0 72.336-72.336 72.4 72.4 0 0 0-72.336-72.336z" p-id="5789"></path></svg>