<?xml version="1.0" standalone="no"?><!DOCTYPE svg PUBLIC "-//W3C//DTD SVG 1.1//EN" "http://www.w3.org/Graphics/SVG/1.1/DTD/svg11.dtd"><svg t="1507641884221" class="icon" style="" viewBox="0 0 1024 1024" version="1.1" xmlns="http://www.w3.org/2000/svg" p-id="5533" xmlns:xlink="http://www.w3.org/1999/xlink" width="32" height="32"><defs><style type="text/css"></style></defs><path d="M557.914721 854.198985h-5.19797c-24.257868 3.46599-48.513706 5.19797-76.237563 5.197969-121.285279 0-225.24467-34.653807-225.24467-34.653807 0-69.305584-69.305584-69.305584-69.305584-69.305584H129.949239c-67.573604 0-121.285279-53.711675-121.28528-121.285279 0-57.177665 39.851777-103.959391 91.831472-117.82132C86.633503 488.609137 77.969543 459.15533 77.969543 426.233503a190.04467 190.04467 0 0 1 190.592894-190.592894c38.117766 0 72.771574 10.395939 103.95939 31.187817 36.385787-98.761421 131.681218-169.801015 242.572589-169.801015 143.811168 0 259.898477 116.08731 259.898477 259.898477 0 8.663959 0 15.593909-1.731979 24.257868 79.701523 22.523858 140.345178 95.295431 140.345177 183.660914a190.04467 190.04467 0 0 1-190.592893 190.592893h-51.979695s-69.305584 0-69.305584 69.305584c-0.00203 0.00203-60.645685 20.793909-143.813198 29.455838" fill="#ECF4F7" p-id="5534"></path><path d="M514.598985 937.366497c-1.73198 0-3.46599 0-3.46599-1.731979-3.46599-1.73198-5.19797-6.929949-3.46599-12.127919l31.187817-57.177665h-62.375634c-5.19797 0-8.663959-3.46599-8.66396-8.663959 0-5.19797 3.46599-8.663959 8.66396-8.66396h62.375634l-31.187817-57.177665c-1.73198-3.46599-1.73198-8.663959 3.46599-12.127919 3.46599-1.73198 8.663959 0 12.127919 3.46599l31.187817 55.445686 31.187817-55.445686c1.73198-3.46599 6.929949-5.19797 12.127919-3.46599 3.46599 1.73198 5.19797 6.929949 3.46599 12.127919l-31.187817 57.177665h62.375634c5.19797 0 8.663959 3.46599 8.66396 8.66396 0 5.19797-3.46599 8.663959-8.66396 8.663959h-62.375634l31.187817 57.177665c1.73198 3.46599 0 8.663959-3.46599 12.127919-3.46599 1.73198-8.663959 0-12.127919-3.46599l-31.187817-55.445685-31.187817 55.445685c-1.73198 3.46599-5.195939 5.19797-8.661929 5.197969zM251.234518 868.060914c-5.19797 0-8.663959-3.46599-8.66396-8.66396v-34.653807c0-58.909645-58.909645-60.643655-60.643654-60.643655H129.949239c-71.039594 0-129.949239-58.909645-129.949239-129.949238s58.909645-129.949239 129.949239-129.949239c5.19797 0 8.663959 3.46599 8.663959 8.66396 0 5.19797-3.46599 8.663959-8.663959 8.663959-62.375635 0-112.62335 50.247716-112.623351 112.62335S67.573604 746.775635 129.949239 746.775635h51.979695c27.721827 0 77.969543 15.593909 77.969543 77.969543v34.653807c0 5.195939-3.46599 8.661929-8.663959 8.661929zM701.725888 833.407107c-5.19797 0-8.663959-3.46599-8.663959-8.66396 0-62.375635 50.247716-77.969543 77.969543-77.969543h51.979696c100.493401 0 181.928934-81.435533 181.928934-181.928934 0-58.909645-29.455838-114.35533-76.237564-149.009137-3.46599-3.46599-5.19797-8.663959-1.73198-12.127919s8.663959-5.19797 12.127919-1.731979c53.711675 38.117766 84.899492 98.761421 84.899493 162.869035 0 109.15736-90.097462 199.254822-199.254823 199.254822h-51.979695c-1.73198 0-60.643655 1.73198-60.643655 60.643655-1.729949 5.2-5.195939 8.663959-10.393909 8.66396z m-360.391878-34.651777c-1.73198 0-3.46599 0-3.46599-1.73198-3.46599-1.73198-5.19797-6.929949-3.46599-12.127919l31.187818-57.177665h-62.375635c-5.19797 0-8.663959-3.46599-8.663959-8.663959 0-5.19797 3.46599-8.663959 8.663959-8.663959h62.375635l-31.187818-57.177665c-1.73198-3.46599-1.73198-8.663959 3.46599-12.127919 3.46599-1.73198 8.663959 0 12.127919 3.46599l31.187817 55.445685 31.187818-55.445685c1.73198-3.46599 6.929949-5.19797 12.127918-3.46599 3.46599 1.73198 5.19797 6.929949 3.46599 12.127919l-31.187817 57.177665h62.375634c5.19797 0 8.663959 3.46599 8.66396 8.663959 0 5.19797-3.46599 8.663959-8.66396 8.663959h-62.375634l31.187817 57.177665c1.73198 3.46599 1.73198 8.663959-3.46599 12.127919-3.46599 1.73198-8.663959 1.73198-12.127918-3.46599l-31.187818-55.445685-31.187817 55.445685c-1.73198 3.463959-5.19797 5.19797-8.661929 5.19797z m-259.898477-329.206091c-3.46599 0-6.929949-3.46599-8.663959-6.92995-1.73198-12.127919-3.46599-24.257868-3.46599-36.385786 0-109.15736 90.097462-199.254822 199.254822-199.254823 55.445685 0 105.691371 22.523858 143.811168 62.375635 3.46599 3.46599 3.46599 8.663959 0 12.127919-3.46599 3.46599-8.663959 3.46599-12.127919 0-34.653807-36.385787-81.435533-57.177665-131.681218-57.177665-100.493401 0-181.928934 81.435533-181.928934 181.928934 0 10.395939 1.73198 22.523858 3.465989 32.919796-0.00203 5.19797-3.46599 8.663959-8.663959 10.39594z m784.893401-34.651777h-1.73198c-5.19797-1.73198-6.929949-5.19797-5.197969-10.395939 5.19797-20.791878 8.663959-43.315736 8.663959-67.573604 0-138.613198-112.62335-251.234518-251.234518-251.234518-83.167513 0-161.137056 41.583756-207.918781 110.88934-3.46599 3.46599-8.663959 5.19797-12.127919 1.73198-3.46599-3.46599-5.19797-8.663959-1.73198-12.127919 50.247716-74.503553 133.415228-119.553299 223.512691-119.553299 147.275127 0 268.562437 121.285279 268.562436 268.562436 0 24.257868-3.46599 48.513706-10.395939 71.039594-3.470051 6.927919-6.936041 8.661929-10.4 8.661929zM152.473096 400.243655h-1.731979c-5.19797-1.73198-6.929949-6.929949-5.19797-10.395939 8.663959-27.721827 25.989848-51.979695 50.247716-69.305584 3.46599-3.46599 8.663959-1.73198 12.127919 1.73198 3.46599 3.46599 1.73198 8.663959-1.73198 12.127918-20.791878 13.861929-36.385787 36.385787-43.315736 60.643655-3.46599 3.46599-6.93198 5.19797-10.39797 5.19797zM805.685279 365.589848c-5.19797 0-8.663959-3.46599-8.663959-8.66396 0-34.653807-10.395939-69.305584-29.455838-98.761421-3.46599-3.46599-1.73198-8.663959 1.73198-12.127919 3.46599-3.46599 8.663959-1.73198 12.127919 1.73198 20.791878 32.919797 32.919797 69.305584 32.919797 109.15736 0.004061 5.2-3.461929 8.663959-8.659899 8.66396z" fill="#51565F" p-id="5535"></path></svg>